<svg width="100%" viewBox="0 0 680 440" xmlns="http://www.w3.org/2000/svg">
<defs>
  <style>
    @keyframes dash  { to{stroke-dashoffset:-28} }
    @keyframes bobB  { 0%,100%{transform:translateY(0)} 50%{transform:translateY(-6px)} }
    @keyframes bobC  { 0%,100%{transform:translateY(0)} 50%{transform:translateY(-6px)} }
    @keyframes lidUp { 0%,50%{transform:rotate(0deg)} 72%{transform:rotate(-28deg)} 100%{transform:rotate(0deg)} }
    @keyframes itemPop{0%,50%{opacity:0;transform:translateY(10px) scale(.8)} 75%{opacity:1;transform:translateY(0) scale(1)} 100%{opacity:1;transform:translateY(0) scale(1)} }
    @keyframes sparkle{0%,100%{opacity:0;transform:scale(.5)} 50%{opacity:1;transform:scale(1)} }
    @keyframes cloud  { 0%,100%{transform:translateX(0)} 50%{transform:translateX(5px)} }
    .fl  { stroke-dasharray:11 7; animation:dash 1.5s linear infinite; }
    .fr  { stroke-dasharray:11 7; animation:dash 1.5s linear infinite .25s; }
    .bB  { animation:bobB 3.2s ease-in-out infinite; }
    .bC  { animation:bobC 3.4s ease-in-out infinite .9s; }
    .lid { animation:lidUp 3s ease-in-out infinite .6s; transform-origin:340px 232px; }
    .itm { animation:itemPop 3s ease-in-out infinite .6s; }
    .sp1 { animation:sparkle 3s ease-in-out infinite 1.1s; }
    .sp2 { animation:sparkle 3s ease-in-out infinite 1.4s; }
    .cld { animation:cloud 5s ease-in-out infinite; }
  </style>
<mask id="imagine-text-gaps-xc0b5j" maskUnits="userSpaceOnUse"><rect x="0" y="0" width="680" height="440" fill="white"></rect><rect x="49.22517776489258" y="347.6804504394531" width="45.54964065551758" height="18.63912010192871" fill="black" rx="2"></rect><rect x="293.5546569824219" y="124.6804428100586" width="92.89066314697266" height="18.63912010192871" fill="black" rx="2"></rect><rect x="312.6614990234375" y="287.98602294921875" width="54.67695236206055" height="12.027904510498047" fill="black" rx="2"></rect></mask></defs>

<!-- ══════════════════════════════════
     CONNECTORS
══════════════════════════════════ -->
<line class="fl" x1="140" y1="220" x2="242" y2="220" fill="none" stroke="#2563a8" stroke-width="2"></line>
<circle cx="140" cy="220" r="4.5" fill="#2563a8"></circle>
<circle cx="140" cy="220" r="9" fill="#2563a8" opacity=".15"></circle>
<circle cx="242" cy="220" r="4.5" fill="#2563a8"></circle>
<circle cx="242" cy="220" r="9" fill="#2563a8" opacity=".15"></circle>

<line class="fr" x1="438" y1="220" x2="534" y2="220" fill="none" stroke="#2563a8" stroke-width="2"></line>
<circle cx="438" cy="220" r="4.5" fill="#2563a8"></circle>
<circle cx="438" cy="220" r="9" fill="#2563a8" opacity=".15"></circle>
<circle cx="534" cy="220" r="4.5" fill="#2563a8"></circle>
<circle cx="534" cy="220" r="9" fill="#2563a8" opacity=".15"></circle>

<!-- ══════════════════════════════════
     LEFT: BRAND WAREHOUSE (ref image 3 style)
     flat icon — peaked roof, open bay, truck, boxes
══════════════════════════════════ -->
<g class="bB" style="transform-origin:72px 210px">

  <!-- ground line -->
  <rect x="10" y="328" width="128" height="5" rx="2" fill="#b0b8c4"></rect>

  <!-- BUILDING BODY -->
  <rect x="22" y="218" width="104" height="110" rx="0" fill="#e8ecf0"></rect>

  <!-- ROOF — flat peak like ref image 3 -->
  <polygon points="14,220 74,154 134,220" fill="#c8cdd4"></polygon>
  <!-- roof right face (depth) -->
  <polygon points="134,220 142,228 142,232 134,224" fill="#b0b6be"></polygon>
  <!-- left face depth -->
  <polygon points="14,220 6,228 6,232 14,224" fill="#b0b6be"></polygon>

  <!-- upper facade strip (like ref) -->
  <rect x="32" y="228" width="84" height="20" rx="2" fill="#c0c8d0"></rect>

  <!-- LARGE OPEN BAY (arch opening, like ref image 3) -->
  <rect x="40" y="248" width="68" height="80" rx="2" fill="#9aa4ae"></rect>

  <!-- rolling door (partially open, like ref) -->
  <rect x="40" y="248" width="68" height="30" rx="0" fill="#c0c8d0"></rect>
  <line x1="40" y1="256" x2="108" y2="256" stroke="#b0b8c4" stroke-width="1"></line>
  <line x1="40" y1="264" x2="108" y2="264" stroke="#b0b8c4" stroke-width="1"></line>
  <line x1="40" y1="272" x2="108" y2="272" stroke="#b0b8c4" stroke-width="1"></line>

  <!-- TRUCK (like ref image 3) inside bay -->
  <!-- truck bed -->
  <rect x="60" y="288" width="44" height="28" rx="2" fill="#7a9aaa"></rect>
  <!-- cab -->
  <rect x="98" y="294" width="22" height="22" rx="3" fill="#8aaabb"></rect>
  <!-- windshield -->
  <rect x="101" y="297" width="14" height="10" rx="1" fill="#c8dce4"></rect>
  <!-- wheels -->
  <circle cx="70" cy="318" r="6" fill="#3a4a54"></circle>
  <circle cx="70" cy="318" r="3" fill="#6a7a84"></circle>
  <circle cx="96" cy="318" r="6" fill="#3a4a54"></circle>
  <circle cx="96" cy="318" r="3" fill="#6a7a84"></circle>
  <circle cx="114" cy="318" r="5" fill="#3a4a54"></circle>
  <circle cx="114" cy="318" r="2.5" fill="#6a7a84"></circle>

  <!-- BOX on ground (like ref) -->
  <rect x="22" y="292" width="32" height="36" rx="2" fill="#d4956a"></rect>
  <rect x="22" y="292" width="32" height="8" rx="2" fill="#c07840"></rect>
  <!-- box flap line -->
  <line x1="38" y1="292" x2="38" y2="328" stroke="#b06830" stroke-width="1"></line>
  <!-- box dots -->
  <circle cx="30" cy="314" r="1.5" fill="#b06830"></circle>
  <circle cx="46" cy="314" r="1.5" fill="#b06830"></circle>

  <!-- BOX on truck -->
  <rect x="68" y="270" width="28" height="24" rx="2" fill="#d4956a"></rect>
  <rect x="68" y="270" width="28" height="7" rx="2" fill="#c07840"></rect>
  <line x1="82" y1="270" x2="82" y2="294" stroke="#b06830" stroke-width="1"></line>
  <circle cx="75" cy="284" r="1.5" fill="#b06830"></circle>
  <circle cx="89" cy="284" r="1.5" fill="#b06830"></circle>

  <!-- "Brand" pill label -->
  <rect x="28" y="340" width="88" height="26" rx="13" fill="#2563a8"></rect>
  <text font-family="Arial,sans-serif" font-size="13" font-weight="700" fill="#fff" x="72" y="357" text-anchor="middle" dominant-baseline="central">Brand</text>

</g>

<!-- ══════════════════════════════════
     CENTER: ECOMGARDEN WAREHOUSE
══════════════════════════════════ -->
<rect x="242" y="110" width="196" height="222" rx="20" fill="#F0F7FF" stroke="#7CB9E8" stroke-width="1.2"></rect>

<!-- top bar -->
<rect x="242" y="110" width="196" height="38" rx="20" fill="#2563a8"></rect>
<rect x="242" y="130" width="196" height="18" fill="#2563a8"></rect>
<line x1="242" y1="148" x2="438" y2="148" stroke="#1a4f8a" stroke-width="0.6"></line>
<text font-family="Arial,sans-serif" font-size="13" font-weight="700" fill="#fff" x="340" y="134" text-anchor="middle" dominant-baseline="central" letter-spacing="0.4">EcomGarden</text>

<!-- workbench -->
<rect x="260" y="296" width="160" height="7" rx="3" fill="#7CB9E8" opacity=".45"></rect>
<rect x="270" y="303" width="140" height="20" rx="3" fill="#D0E8F8" opacity=".5"></rect>

<!-- BOX BODY (ref image 2 style — open gift box feeling) -->
<!-- box bottom -->
<rect x="294" y="252" width="92" height="60" rx="5" fill="#fff" stroke="#2563a8" stroke-width="1.4"></rect>
<!-- left depth panel -->
<rect x="294" y="252" width="14" height="60" rx="2" fill="#D0E8F8"></rect>
<!-- color band -->
<rect x="294" y="270" width="92" height="12" fill="#2563a8" opacity=".5"></rect>
<!-- tape cross -->
<line x1="340" y1="252" x2="340" y2="312" stroke="#7CB9E8" stroke-width="1.2" mask="url(#imagine-text-gaps-xc0b5j)"></line>
<line x1="294" y1="282" x2="386" y2="282" stroke="#7CB9E8" stroke-width="1.2"></line>
<!-- small EG label -->
<text font-family="Arial,sans-serif" font-size="7.5" font-weight="700" fill="#2563a8" x="340" y="294" text-anchor="middle" dominant-baseline="central" opacity=".6">EcomGarden</text>

<!-- BOX LID (flips open, ref image 2) -->
<g class="lid">
  <rect x="290" y="238" width="100" height="18" rx="5" fill="#B8D8F0" stroke="#2563a8" stroke-width="1.3"></rect>
  <line x1="290" y1="247" x2="390" y2="247" stroke="#7CB9E8" stroke-width="0.8"></line>
</g>

<!-- ITEMS popping out of box (ref image 2: heart shapes popping) -->
<g class="itm">
  <!-- item 1: rounded product -->
  <rect x="307" y="258" width="18" height="16" rx="5" fill="#7CB9E8" opacity=".9"></rect>
  <!-- heart cutout hint -->
  <path d="M316 263 Q316 260 313 260 Q310 260 310 263 Q310 267 316 270 Q322 267 322 263 Q322 260 319 260 Q316 260 316 263Z" fill="#2563a8" opacity=".4"></path>
  <!-- item 2: taller product -->
  <rect x="330" y="255" width="16" height="20" rx="5" fill="#5b8dd9" opacity=".85"></rect>
  <path d="M338 261 Q338 258 335 258 Q332 258 332 261 Q332 265 338 268 Q344 265 344 261 Q344 258 341 258 Q338 258 338 261Z" fill="#1a4f8a" opacity=".35"></path>
  <!-- item 3 -->
  <rect x="351" y="259" width="18" height="15" rx="5" fill="#7CB9E8" opacity=".8"></rect>
</g>

<!-- sparkle wisps (like ref image 2 swirl effect) -->
<g class="sp1">
  <path d="M370 240 Q378 232 374 225" fill="none" stroke="#7CB9E8" stroke-width="2.5" stroke-linecap="round"></path>
  <path d="M376 244 Q386 238 384 230" fill="none" stroke="#B8D8F0" stroke-width="2" stroke-linecap="round"></path>
</g>
<g class="sp2">
  <path d="M362 236 Q368 226 364 219" fill="none" stroke="#7CB9E8" stroke-width="1.8" stroke-linecap="round"></path>
</g>

<!-- scanner beam -->
<rect class="scan" x="260" y="155" width="120" height="2" rx="1" fill="#2563a8" opacity=".35"></rect>

<!-- packing arm -->
<line x1="340" y1="194" x2="340" y2="212" stroke="#a8c8e0" stroke-width="2.5" stroke-linecap="round"></line>
<line x1="340" y1="212" x2="325" y2="224" stroke="#a8c8e0" stroke-width="2" stroke-linecap="round"></line>
<circle cx="340" cy="194" r="4" fill="#D0E8F8" stroke="#7CB9E8" stroke-width="0.8"></circle>
<circle cx="325" cy="224" r="2.5" fill="#2563a8"></circle>

<!-- ══════════════════════════════════
     RIGHT: HOUSE EXTERIOR (ref image 1 style)
     flat icon: 2 round trees, house, sun
══════════════════════════════════ -->
<g class="bC" style="transform-origin:604px 220px">

  <!-- card background (sky) -->
  <rect x="534" y="110" width="132" height="222" rx="18" fill="#EBF6FF" stroke="#7CB9E8" stroke-width="1.2"></rect>

  <!-- SUN (top right, like ref) -->
  <circle cx="648" cy="130" r="16" fill="#F9D85A"></circle>
  <circle cx="648" cy="130" r="12" fill="#FFC857"></circle>

  <!-- GROUND / LAWN (bottom strip, like ref) -->
  <rect x="534" y="296" width="132" height="36" rx="0" fill="#8DC63F" opacity=".5"></rect>
  <rect x="534" y="300" width="132" height="32" rx="0" fill="#8DC63F" opacity=".35"></rect>
  <!-- ground curve at bottom of card -->
  <rect x="534" y="316" width="132" height="16" rx="8" fill="#8DC63F" opacity=".4"></rect>

  <!-- TREE LEFT (ref image 1: tall oval + round, two-tone green, brown trunk) -->
  <!-- trunk -->
  <rect x="556" y="240" width="10" height="70" rx="4" fill="#7B4A28"></rect>
  <!-- branch hint -->
  <path d="M561 268 Q550 260 546 254" fill="none" stroke="#7B4A28" stroke-width="5" stroke-linecap="round"></path>
  <!-- foliage back (darker) -->
  <ellipse cx="561" cy="210" rx="26" ry="40" fill="#6aaa28"></ellipse>
  <!-- foliage front (lighter) -->
  <ellipse cx="555" cy="218" rx="22" ry="34" fill="#8DC63F"></ellipse>

  <!-- TREE RIGHT (smaller round tree, like ref image 1 right tree) -->
  <!-- trunk -->
  <rect x="632" y="258" width="8" height="48" rx="3" fill="#7B4A28"></rect>
  <!-- foliage back -->
  <ellipse cx="636" cy="234" rx="20" ry="30" fill="#6aaa28"></ellipse>
  <!-- foliage front -->
  <ellipse cx="631" cy="240" rx="17" ry="26" fill="#8DC63F"></ellipse>

  <!-- HOUSE BODY (ref image 1: cream walls) -->
  <rect x="564" y="232" width="82" height="78" rx="2" fill="#F5E6D0"></rect>
  <!-- right wall shadow (depth) -->
  <rect x="638" y="232" width="8" height="78" rx="0" fill="#e8d4b8"></rect>

  <!-- ROOF (ref image 1: bright red/pink triangular) -->
  <polygon points="556,234 605,180 654,234" fill="#E8384A"></polygon>
  <!-- roof right face depth -->
  <polygon points="654,234 662,242 662,246 654,238" fill="#c02838"></polygon>
  <!-- CHIMNEY (ref image 1: small red chimney right side) -->
  <rect x="636" y="190" width="12" height="28" rx="2" fill="#E8384A"></rect>
  <rect x="634" y="188" width="16" height="6" rx="1" fill="#c02838"></rect>

  <!-- GARAGE DOOR / MAIN DOOR (ref image 1: large brown rectangle left) -->
  <rect x="570" y="260" width="30" height="50" rx="2" fill="#7B4A28"></rect>
  <!-- door frame -->
  <rect x="568" y="258" width="34" height="54" rx="2" fill="none" stroke="#5a3418" stroke-width="1"></rect>

  <!-- WINDOW (ref image 1: brown frame, light blue glass) -->
  <rect x="612" y="256" width="26" height="24" rx="2" fill="#7B4A28"></rect>
  <rect x="616" y="260" width="18" height="16" rx="1" fill="#B8E4F0"></rect>
  <!-- window cross -->
  <line x1="625" y1="260" x2="625" y2="276" stroke="#7B4A28" stroke-width="1"></line>
  <line x1="616" y1="268" x2="634" y2="268" stroke="#7B4A28" stroke-width="1"></line>

  <!-- DELIVERY BOX on doorstep (branded) -->
  <rect x="572" y="298" width="26" height="20" rx="3" fill="#fff" stroke="#2563a8" stroke-width="1.2"></rect>
  <rect x="572" y="292" width="26" height="10" rx="3" fill="#D0E8F8" stroke="#2563a8" stroke-width="1"></rect>
  <rect x="572" y="305" width="26" height="5" fill="#2563a8" opacity=".5"></rect>
  <line x1="585" y1="298" x2="585" y2="318" stroke="#7CB9E8" stroke-width="0.9"></line>

</g>

</svg>