<svg xmlns="http://www.w3.org/2000/svg" xmlns:xlink="http://www.w3.org/1999/xlink" x="0px" y="0px" viewBox="0 0 750 500" style="enable-background:new 0 0 750 500;" xml:space="preserve"><g id="Background_Simple">	<g>		<path style="fill:#92E3A9;" d="M286.182,112.488c97.474-47.994,197.73-110.752,310.967-85.069   c35.11,7.963,67.062,27.87,88.661,56.811c57.753,77.387,53.057,195.92,21.679,283.033c-4.095,11.368-9.208,22.393-15.787,32.547   c-31.847,49.154-85.513,51.47-137.276,37.259c-43.805-12.026-82.614-24.399-127.864-12.17   c-25.063,6.773-49.35,16.082-74.321,23.167c-33.997,9.646-69.046,16.199-104.452,16.862   C154.12,466.684,47.122,418.9,38.823,314.297c-0.538-6.779-0.633-13.592-0.328-20.385c1.871-41.759,15.672-83.579,53.925-105.26   c38.459-21.798,84.089-30.416,125.228-45.876C241.041,133.985,263.74,123.538,286.182,112.488z"></path>		<path style="opacity:0.7;fill:#FFFFFF;" d="M286.182,112.488c97.474-47.994,197.73-110.752,310.967-85.069   c35.11,7.963,67.062,27.87,88.661,56.811c57.753,77.387,53.057,195.92,21.679,283.033c-4.095,11.368-9.208,22.393-15.787,32.547   c-31.847,49.154-85.513,51.47-137.276,37.259c-43.805-12.026-82.614-24.399-127.864-12.17   c-25.063,6.773-49.35,16.082-74.321,23.167c-33.997,9.646-69.046,16.199-104.452,16.862   C154.12,466.684,47.122,418.9,38.823,314.297c-0.538-6.779-0.633-13.592-0.328-20.385c1.871-41.759,15.672-83.579,53.925-105.26   c38.459-21.798,84.089-30.416,125.228-45.876C241.041,133.985,263.74,123.538,286.182,112.488z"></path>	</g></g><g id="Floor">	<line style="fill:none;stroke:#263238;stroke-miterlimit:10;" x1="745.37" y1="440.362" x2="19.031" y2="440.362"></line></g><g id="Plant">	<g>		<path style="fill:#263238;" d="M35.344,343.994c3.24,1.415,11.164,1.236,11.17,1.236c0.082-0.002-1.703-5.187-1.854-5.501   c-1.738-3.637-7.237-9.643-11.71-9.038c-3.223,0.436-5.015,3.661-4.288,6.696C29.405,340.486,32.584,342.788,35.344,343.994z"></path>		<path style="fill:#263238;" d="M38.079,366.947c3.361,0.49,10.432-1.561,10.995-1.727c1.117,3.959,2.583,7.931,4.289,11.868   c0.972,2.252,2.022,4.49,3.103,6.721c-0.645-0.945-1.229-1.785-1.323-1.894c-2.638-3.049-9.527-7.389-13.681-5.624   c-2.995,1.271-3.871,4.855-2.368,7.59c1.534,2.793,5.211,4.174,8.189,4.608c3.024,0.441,9.087-1.187,10.687-1.639   c0.424,0.852,0.837,1.706,1.264,2.556c2.048,4.078,4.109,8.138,6.008,12.182c0.67,1.425,1.277,2.852,1.891,4.279   c-0.574-0.839-1.064-1.54-1.15-1.64c-2.637-3.048-9.526-7.389-13.681-5.624c-2.994,1.271-3.871,4.856-2.368,7.59   c1.536,2.793,5.21,4.174,8.19,4.608c2.885,0.421,8.496-1.031,10.399-1.559c0.584,1.48,1.172,2.961,1.67,4.421   c0.318,1.005,0.695,1.95,0.958,2.977c0.283,1.011,0.561,2.012,0.838,3.004c0.463,1.928,0.952,3.916,1.356,5.809   c0.291,1.315,0.544,2.573,0.803,3.839c-0.651-1.426-1.983-4.191-2.121-4.41c-2.144-3.413-8.296-8.746-12.671-7.632   c-3.152,0.803-4.561,4.213-3.489,7.143c1.094,2.993,4.517,4.915,7.396,5.796c3.171,0.969,10.189,0.084,11.066-0.033   c0.421,2.097,0.81,4.141,1.146,6.076c0.253,1.432,0.482,2.808,0.694,4.13h2.811c-0.265-1.472-0.555-3.011-0.876-4.621   c-0.418-2.131-0.908-4.4-1.433-6.726c0.528-0.21,3.521-1.421,6.174-2.903c2.311,2.502,8.231,5.431,8.998,5.803   c-0.805,1.982-1.609,3.901-2.396,5.7c-0.414,0.953-0.817,1.853-1.218,2.747h2.973c0.236-0.565,0.469-1.118,0.71-1.706   c0.827-2.008,1.67-4.172,2.515-6.4c0.849,0.178,7.797,1.589,11.036,0.858c2.936-0.664,6.494-2.326,7.809-5.229   c1.287-2.842,0.135-6.348-2.949-7.383c-4.279-1.438-10.811,3.422-13.204,6.667c-0.142,0.191-1.441,2.439-2.238,3.87   c0.34-0.912,0.681-1.795,1.02-2.739c0.684-1.861,1.31-3.739,1.991-5.757c0.295-0.986,0.593-1.982,0.894-2.988   c0.319-0.991,0.531-2.079,0.804-3.127c0.582-2.444,1.053-4.948,1.471-7.482c1.631,0.593,7.456,2.62,10.473,2.408   c3.004-0.211,6.771-1.314,8.51-3.985c1.703-2.615,1.095-6.255-1.795-7.746c-4.012-2.069-11.205,1.746-14.063,4.59   c-0.178,0.177-1.999,2.448-2.975,3.715c0.239-1.525,0.486-3.046,0.678-4.596c0.556-4.476,0.978-9.024,1.421-13.56   c0.134-1.39,0.285-2.772,0.431-4.157c0.579,0.218,7.449,2.776,10.829,2.538c3.003-0.21,6.771-1.314,8.51-3.985   c1.703-2.614,1.095-6.254-1.796-7.745c-4.012-2.07-11.205,1.745-14.062,4.589c-0.215,0.214-2.831,3.486-3.455,4.35   c0.322-3.05,0.672-6.085,1.138-9.065c0.637-4.111,1.49-8.109,2.602-11.922c0.269,0.102,7.428,2.804,10.889,2.561   c3.004-0.211,6.772-1.315,8.51-3.985c1.703-2.615,1.096-6.254-1.795-7.745c-4.013-2.069-11.205,1.746-14.063,4.589   c-0.224,0.223-3.036,3.745-3.5,4.419c0.067-0.226,0.111-0.469,0.181-0.694c1.239-4.055,2.949-7.828,4.723-11.282   c1.027-2.009,2.121-3.872,3.225-5.66c1.282,0.64,7.172,3.5,10.311,3.626c3.009,0.12,6.875-0.563,8.896-3.026   c1.98-2.412,1.776-6.096-0.933-7.895c-3.762-2.497-11.329,0.504-14.482,3.017c-0.171,0.136-1.76,1.719-2.901,2.887   c0.51-0.8,1.023-1.634,1.528-2.39c1.888-2.844,3.793-5.332,5.498-7.522c0.979-1.237,1.889-2.337,2.752-3.356   c1.585-0.028,7.973-0.222,10.766-1.533c2.725-1.28,5.842-3.667,6.501-6.785c0.645-3.053-1.234-6.229-4.467-6.577   c-4.488-0.484-9.823,5.667-11.462,9.35c-0.141,0.319-1.786,5.551-1.703,5.55c0,0,0.077-0.001,0.096-0.001   c-0.85,0.964-1.749,2.008-2.709,3.169c-1.756,2.157-3.72,4.61-5.677,7.424c-1.964,2.808-4.018,5.912-5.887,9.378   c-1.878,3.472-3.675,7.22-5.029,11.32c-0.015,0.046-0.025,0.096-0.041,0.143c0.024-1.323-0.035-5.023-0.072-5.306   c-0.518-3.998-3.869-11.418-8.309-12.239c-3.198-0.59-5.907,1.915-6.161,5.025c-0.26,3.176,2.043,6.355,4.289,8.361   c2.532,2.262,9.562,4.453,10.122,4.626c-1.253,3.917-2.22,8.039-2.97,12.263c-0.431,2.416-0.79,4.862-1.119,7.319   c-0.017-1.144-0.04-2.167-0.059-2.31c-0.519-3.998-3.869-11.418-8.309-12.238c-3.198-0.592-5.907,1.915-6.161,5.024   c-0.261,3.176,2.043,6.355,4.288,8.361c2.279,2.035,8.234,4.024,9.817,4.529c-0.116,0.944-0.243,1.886-0.355,2.83   c-0.542,4.531-1.062,9.054-1.709,13.475c-0.227,1.558-0.508,3.084-0.783,4.611c-0.016-1.015-0.038-1.871-0.055-2.001   c-0.519-3.999-3.869-11.418-8.308-12.239c-3.199-0.591-5.908,1.914-6.163,5.025c-0.26,3.175,2.044,6.355,4.289,8.361   c2.174,1.943,7.655,3.827,9.533,4.436c-0.329,1.557-0.657,3.116-1.046,4.609c-0.289,1.014-0.497,2.009-0.843,3.011   c-0.323,0.998-0.642,1.988-0.958,2.967c-0.679,1.864-1.367,3.792-2.074,5.593c-0.482,1.257-0.966,2.446-1.448,3.645   c0.244-1.548,0.658-4.59,0.664-4.847c0.062-2.678-0.889-7.031-2.782-10.092c0.012-0.395-0.011-0.789-0.074-1.181   c-0.495-3.081-3.39-5.369-6.533-4.532c-4.363,1.161-7.129,8.819-7.335,12.844c-0.012,0.238,0.143,2.829,0.268,4.463   c-0.22-0.949-0.422-1.873-0.66-2.847c-0.457-1.929-0.971-3.841-1.515-5.901c-0.298-0.985-0.599-1.979-0.903-2.985   c-0.28-1.002-0.704-2.026-1.054-3.051c-0.863-2.359-1.852-4.708-2.901-7.052c1.689-0.405,7.665-1.928,10.064-3.77   c2.389-1.833,4.922-4.832,4.9-8.018c-0.023-3.121-2.536-5.822-5.77-5.47c-4.488,0.487-8.383,7.637-9.198,11.585   c-0.05,0.246-0.316,3.145-0.432,4.74c-0.641-1.404-1.275-2.809-1.97-4.208c-2.005-4.04-4.161-8.067-6.295-12.093   c-0.654-1.233-1.291-2.469-1.933-3.704c0.603-0.138,7.745-1.795,10.432-3.857c2.388-1.833,4.923-4.832,4.9-8.019   c-0.022-3.12-2.536-5.821-5.77-5.469c-4.488,0.487-8.383,7.637-9.198,11.585c-0.061,0.298-0.438,4.469-0.481,5.534   c-1.413-2.721-2.797-5.446-4.052-8.188c-1.736-3.781-3.231-7.586-4.406-11.379c0.281-0.064,7.742-1.76,10.495-3.872   c2.389-1.833,4.923-4.831,4.899-8.018c-0.022-3.12-2.536-5.821-5.77-5.469c-4.488,0.487-8.383,7.637-9.197,11.585   c-0.064,0.31-0.467,4.798-0.481,5.616c-0.07-0.225-0.167-0.451-0.234-0.677c-1.203-4.067-1.858-8.157-2.284-12.016   c-0.252-2.241-0.367-4.399-0.432-6.499c1.422-0.174,7.913-1.038,10.6-2.665c2.576-1.56,5.424-4.262,5.751-7.432   c0.32-3.104-1.882-6.065-5.134-6.071c-4.515-0.009-9.171,6.671-10.415,10.505c-0.068,0.209-0.521,2.405-0.827,4.009   c-0.015-0.949-0.048-1.928-0.044-2.837c0.007-3.414,0.222-6.54,0.436-9.306c0.134-1.573,0.287-2.992,0.444-4.318   c1.306-0.899,6.527-4.584,8.133-7.218c1.568-2.571,2.849-6.281,1.679-9.245c-1.146-2.903-4.465-4.515-7.354-3.022   c-4.011,2.073-5.066,10.147-4.403,14.123c0.058,0.343,1.573,5.614,1.642,5.569c0,0,0.064-0.044,0.078-0.054   c-0.177,1.273-0.351,2.641-0.511,4.138c-0.275,2.768-0.56,5.897-0.64,9.324c-0.089,3.425-0.09,7.148,0.264,11.07   c0.349,3.931,0.916,8.049,2.051,12.216c0.013,0.047,0.033,0.095,0.045,0.142c-0.71-1.116-2.801-4.169-2.988-4.386   c-2.638-3.049-9.526-7.389-13.681-5.624c-2.994,1.272-3.871,4.856-2.367,7.59C31.426,365.132,35.1,366.512,38.079,366.947z"></path>		<path style="fill:#263238;" d="M115.494,345.737c0.07,0.044,1.441-5.267,1.49-5.611c0.556-3.992-0.717-12.035-4.782-13.999   c-2.928-1.415-6.202,0.287-7.269,3.22c-1.09,2.994,0.291,6.669,1.928,9.196C108.781,341.511,115.489,345.733,115.494,345.737z"></path>	</g></g><g id="Graphics">			<rect x="667.546" y="68.47" transform="matrix(0.7071 -0.7071 0.7071 0.7071 144.0158 499.5359)" style="fill:none;stroke:#263238;stroke-miterlimit:10;" width="14.91" height="14.91"></rect>			<rect x="267.439" y="391.749" transform="matrix(0.7071 -0.7071 0.7071 0.7071 -200.7052 308.7411)" style="fill:none;stroke:#263238;stroke-miterlimit:10;" width="9.792" height="9.792"></rect>			<rect x="640.227" y="148.59" transform="matrix(0.7071 -0.7071 0.7071 0.7071 80.4211 501.1261)" style="fill:none;stroke:#263238;stroke-miterlimit:10;" width="9.792" height="9.792"></rect>			<rect x="262.926" y="37.189" transform="matrix(0.7071 -0.7071 0.7071 0.7071 48.6848 201.7052)" style="fill:none;stroke:#263238;stroke-miterlimit:10;" width="9.792" height="9.792"></rect>			<rect x="69.717" y="263.959" transform="matrix(0.7071 -0.7071 0.7071 0.7071 -169.3154 134.0639)" style="fill:none;stroke:#263238;stroke-miterlimit:10;" width="14.91" height="14.91"></rect></g><g id="Money">	<g>		<g>			<path style="fill:none;stroke:#263238;stroke-miterlimit:10;" d="M567.944,82.299v-4.257c-3.143-0.122-5.493-1.129-7.049-3.021    c-1.556-1.892-2.396-4.715-2.518-8.468l6.454-1.099c0.061,1.526,0.221,2.8,0.481,3.822c0.259,1.023,0.648,1.785,1.167,2.289    c0.518,0.504,1.19,0.755,2.014,0.755c0.946,0,1.594-0.305,1.946-0.916c0.35-0.61,0.526-1.312,0.526-2.106    c0-1.556-0.359-2.861-1.075-3.914c-0.718-1.053-1.702-2.113-2.953-3.181l-3.891-3.342c-0.885-0.824-1.678-1.663-2.38-2.517    c-0.702-0.854-1.258-1.831-1.67-2.93c-0.412-1.098-0.618-2.395-0.618-3.891c0-2.868,0.816-5.104,2.449-6.706    c1.632-1.602,3.822-2.51,6.568-2.724v-4.074h2.197v4.074c1.648,0.092,2.998,0.466,4.051,1.122    c1.053,0.657,1.854,1.48,2.403,2.472c0.549,0.992,0.946,2.076,1.19,3.25c0.244,1.175,0.396,2.311,0.458,3.41l-6.546,0.961    c-0.031-1.129-0.122-2.128-0.275-2.998c-0.153-0.87-0.427-1.548-0.824-2.037c-0.397-0.488-1.007-0.717-1.831-0.687    c-0.854,0.031-1.503,0.366-1.945,1.007c-0.443,0.641-0.664,1.358-0.664,2.151c0,1.404,0.336,2.534,1.007,3.387    c0.671,0.855,1.434,1.679,2.289,2.472l3.799,3.296c1.007,0.916,1.938,1.908,2.792,2.976c0.854,1.068,1.541,2.251,2.06,3.547    c0.518,1.298,0.778,2.785,0.778,4.463c0,1.618-0.328,3.09-0.984,4.417c-0.657,1.327-1.602,2.403-2.838,3.227    c-1.236,0.824-2.693,1.312-4.371,1.465v4.303H567.944z"></path>		</g>					<ellipse transform="matrix(0.9868 -0.1619 0.1619 0.9868 -2.0804 92.7976)" style="fill:none;stroke:#263238;stroke-miterlimit:10;" cx="568.23" cy="59.161" rx="34.794" ry="34.794"></ellipse>					<ellipse transform="matrix(0.3759 -0.9266 0.9266 0.3759 299.7846 563.4645)" style="fill:none;stroke:#263238;stroke-miterlimit:10;" cx="568.23" cy="59.161" rx="29.25" ry="29.25"></ellipse>	</g>	<g>		<g>			<path style="fill:none;stroke:#263238;stroke-miterlimit:10;" d="M69.309,127.679v-4.257c-3.143-0.122-5.493-1.129-7.049-3.021    c-1.556-1.892-2.396-4.715-2.518-8.468l6.454-1.099c0.061,1.526,0.221,2.8,0.481,3.822c0.259,1.023,0.648,1.785,1.167,2.289    c0.518,0.504,1.19,0.755,2.014,0.755c0.946,0,1.594-0.305,1.946-0.915c0.35-0.61,0.526-1.312,0.526-2.106    c0-1.556-0.359-2.861-1.075-3.914c-0.718-1.053-1.702-2.113-2.953-3.181l-3.891-3.342c-0.885-0.824-1.678-1.663-2.38-2.518    c-0.702-0.854-1.258-1.831-1.67-2.93c-0.412-1.098-0.618-2.395-0.618-3.891c0-2.868,0.816-5.104,2.449-6.706    c1.632-1.602,3.822-2.51,6.568-2.724v-4.074h2.197v4.074c1.648,0.092,2.998,0.466,4.051,1.122    c1.053,0.657,1.854,1.48,2.403,2.472c0.549,0.992,0.946,2.076,1.19,3.25c0.244,1.175,0.396,2.311,0.458,3.41l-6.546,0.961    c-0.031-1.129-0.122-2.128-0.275-2.998c-0.153-0.87-0.427-1.548-0.824-2.037c-0.397-0.488-1.007-0.717-1.831-0.687    c-0.854,0.031-1.503,0.366-1.945,1.007c-0.443,0.641-0.664,1.358-0.664,2.151c0,1.404,0.336,2.533,1.007,3.387    c0.671,0.855,1.434,1.679,2.288,2.472l3.799,3.296c1.007,0.916,1.938,1.908,2.792,2.976c0.854,1.068,1.541,2.251,2.06,3.547    c0.518,1.298,0.778,2.785,0.778,4.463c0,1.618-0.328,3.09-0.984,4.417c-0.657,1.327-1.602,2.403-2.838,3.227    c-1.236,0.824-2.693,1.312-4.371,1.465v4.303H69.309z"></path>		</g>					<ellipse transform="matrix(0.9871 -0.1602 0.1602 0.9871 -15.8468 12.4976)" style="fill:none;stroke:#263238;stroke-miterlimit:10;" cx="69.594" cy="104.54" rx="34.794" ry="34.794"></ellipse>					<ellipse transform="matrix(0.3827 -0.9239 0.9239 0.3827 -53.6209 128.8307)" style="fill:none;stroke:#263238;stroke-miterlimit:10;" cx="69.594" cy="104.54" rx="29.25" ry="29.25"></ellipse>	</g>	<g>		<g>			<path style="fill:none;stroke:#263238;stroke-miterlimit:10;" d="M195.132,425.729v-4.257c-3.143-0.122-5.493-1.129-7.049-3.021    c-1.556-1.892-2.396-4.715-2.518-8.468l6.454-1.099c0.061,1.526,0.221,2.8,0.481,3.822c0.259,1.023,0.648,1.785,1.167,2.289    c0.519,0.504,1.19,0.755,2.014,0.755c0.946,0,1.594-0.305,1.946-0.915c0.35-0.61,0.526-1.312,0.526-2.106    c0-1.556-0.359-2.861-1.075-3.914c-0.718-1.053-1.702-2.113-2.953-3.181l-3.891-3.342c-0.885-0.824-1.678-1.663-2.38-2.518    c-0.702-0.854-1.258-1.831-1.671-2.93c-0.412-1.098-0.618-2.395-0.618-3.891c0-2.868,0.816-5.104,2.449-6.706    c1.632-1.602,3.822-2.51,6.568-2.724v-4.074h2.197v4.074c1.648,0.092,2.998,0.466,4.051,1.122    c1.053,0.657,1.854,1.48,2.403,2.472c0.549,0.992,0.946,2.076,1.19,3.25c0.244,1.175,0.397,2.311,0.458,3.41l-6.546,0.961    c-0.031-1.129-0.122-2.128-0.275-2.998c-0.153-0.87-0.427-1.548-0.824-2.037c-0.397-0.488-1.007-0.717-1.831-0.686    c-0.854,0.031-1.503,0.366-1.945,1.007c-0.443,0.641-0.664,1.358-0.664,2.151c0,1.404,0.335,2.534,1.007,3.387    c0.671,0.855,1.434,1.679,2.288,2.472l3.799,3.296c1.007,0.915,1.938,1.908,2.792,2.975c0.854,1.068,1.541,2.251,2.06,3.547    c0.518,1.297,0.778,2.785,0.778,4.463c0,1.618-0.328,3.09-0.984,4.417c-0.657,1.327-1.602,2.403-2.838,3.227    c-1.236,0.824-2.693,1.312-4.371,1.465v4.303H195.132z"></path>		</g>					<ellipse transform="matrix(0.9871 -0.1602 0.1602 0.9871 -61.9645 36.5009)" style="fill:none;stroke:#263238;stroke-miterlimit:10;" cx="195.418" cy="402.59" rx="34.794" ry="34.794"></ellipse>					<ellipse transform="matrix(0.3827 -0.9239 0.9239 0.3827 -251.31 429.0679)" style="fill:none;stroke:#263238;stroke-miterlimit:10;" cx="195.418" cy="402.59" rx="29.25" ry="29.25"></ellipse>	</g></g><g id="Device">	<g>		<g>			<polygon style="fill:#FFFFFF;stroke:#263238;stroke-linecap:round;stroke-linejoin:round;stroke-miterlimit:10;" points="    431.312,434.056 318.688,434.056 335.582,371.887 414.418,371.887    "></polygon>			<polygon style="fill:#263238;stroke:#263238;stroke-linecap:round;stroke-linejoin:round;stroke-miterlimit:10;" points="    423.659,405.893 414.418,371.887 335.582,371.887 326.341,405.893    "></polygon>							<rect x="289.406" y="434.056" style="fill:#FFFFFF;stroke:#263238;stroke-linecap:round;stroke-linejoin:round;stroke-miterlimit:10;" width="171.188" height="6.307"></rect>		</g>					<rect x="131.543" y="69.323" style="fill:#FFFFFF;stroke:#263238;stroke-linecap:round;stroke-linejoin:round;stroke-miterlimit:10;" width="486.914" height="309.091"></rect>		<polyline style="fill:#FFFFFF;stroke:#263238;stroke-linecap:round;stroke-linejoin:round;stroke-miterlimit:10;" points="   279.615,366.631 147.148,366.631 147.148,81.105 602.852,81.105 602.852,366.631 291.047,366.631   "></polyline>	</g></g><g id="Cart">	<g>		<g>			<g>									<line style="fill:none;stroke:#263238;stroke-linecap:round;stroke-linejoin:round;stroke-miterlimit:10;" x1="392.064" y1="185.392" x2="388.786" y2="220.216"></line>									<line style="fill:none;stroke:#263238;stroke-linecap:round;stroke-linejoin:round;stroke-miterlimit:10;" x1="384.143" y1="185.392" x2="382.163" y2="220.216"></line>									<line style="fill:none;stroke:#263238;stroke-linecap:round;stroke-linejoin:round;stroke-miterlimit:10;" x1="376.223" y1="185.392" x2="375.54" y2="220.216"></line>									<line style="fill:none;stroke:#263238;stroke-linecap:round;stroke-linejoin:round;stroke-miterlimit:10;" x1="368.302" y1="185.392" x2="368.916" y2="220.216"></line>									<line style="fill:none;stroke:#263238;stroke-linecap:round;stroke-linejoin:round;stroke-miterlimit:10;" x1="360.381" y1="185.392" x2="362.293" y2="220.216"></line>									<line style="fill:none;stroke:#263238;stroke-linecap:round;stroke-linejoin:round;stroke-miterlimit:10;" x1="352.461" y1="185.392" x2="355.67" y2="220.216"></line>									<line style="fill:none;stroke:#263238;stroke-linecap:round;stroke-linejoin:round;stroke-miterlimit:10;" x1="344.54" y1="185.392" x2="349.047" y2="220.216"></line>			</g>							<line style="fill:none;stroke:#263238;stroke-linecap:round;stroke-linejoin:round;stroke-miterlimit:10;" x1="398.755" y1="192.767" x2="337.302" y2="192.767"></line>							<line style="fill:none;stroke:#263238;stroke-linecap:round;stroke-linejoin:round;stroke-miterlimit:10;" x1="397.799" y1="200.278" x2="338.531" y2="200.278"></line>							<line style="fill:none;stroke:#263238;stroke-linecap:round;stroke-linejoin:round;stroke-miterlimit:10;" x1="397.116" y1="207.789" x2="339.487" y2="207.789"></line>							<line style="fill:none;stroke:#263238;stroke-linecap:round;stroke-linejoin:round;stroke-miterlimit:10;" x1="396.57" y1="215.299" x2="341.126" y2="215.299"></line>		</g>					<polyline style="fill:none;stroke:#263238;stroke-width:3;stroke-linecap:round;stroke-linejoin:round;stroke-miterlimit:10;" points="   409.134,162.996 402.169,167.912 395.478,221.172 342.082,221.172 335.527,185.119 398.892,185.119   "></polyline>		<g>			<path style="fill:#263238;stroke:#263238;stroke-linecap:round;stroke-linejoin:round;stroke-miterlimit:10;" d="    M393.133,242.475c0-2.413,1.956-4.37,4.37-4.37c2.414,0,4.37,1.957,4.37,4.37s-1.956,4.37-4.37,4.37    C395.09,246.845,393.133,244.889,393.133,242.475z"></path>			<path style="fill:#8A8A8A;" d="M398.209,236.876v5.326h-2.049c0,0,0.819-2.322-0.546-2.868c-1.366-0.546-3.551-1.912-3.824-2.731    L398.209,236.876z"></path>		</g>		<g>			<path style="fill:#263238;stroke:#263238;stroke-linecap:round;stroke-linejoin:round;stroke-miterlimit:10;" d="    M346.019,242.475c0-2.413,1.957-4.37,4.37-4.37c2.413,0,4.37,1.957,4.37,4.37s-1.957,4.37-4.37,4.37    C347.976,246.845,346.019,244.889,346.019,242.475z"></path>			<path style="fill:#8A8A8A;" d="M351.095,236.876v5.326h-2.048c0,0,0.819-2.322-0.546-2.868c-1.366-0.546-3.551-1.912-3.824-2.731    L351.095,236.876z"></path>		</g>		<path style="fill:none;stroke:#263238;stroke-width:3;stroke-linecap:round;stroke-linejoin:round;stroke-miterlimit:10;" d="   M395.478,221.172l5.442,8.73c0.695,1.115,0.788,2.505,0.247,3.703l0,0c-0.637,1.41-2.04,2.316-3.587,2.316h-54.405"></path>	</g></g><g id="Pictures">	<g>					<rect x="156.238" y="155.785" style="fill:#FFFFFF;stroke:#263238;stroke-linecap:round;stroke-linejoin:round;stroke-miterlimit:10;" width="64.084" height="90.016"></rect>		<g>			<polygon style="fill:#92E3A9;stroke:#263238;stroke-linecap:round;stroke-linejoin:round;stroke-miterlimit:10;" points="    220.322,181.481 211.094,170.649 191.252,205.175 178.155,196.841 156.238,245.801 220.322,245.801    "></polygon>			<path style="fill:#92E3A9;stroke:#263238;stroke-linecap:round;stroke-linejoin:round;stroke-miterlimit:10;" d="    M178.552,172.633c0,3.726-3.021,6.747-6.746,6.747c-3.726,0-6.747-3.021-6.747-6.747c0-3.726,3.021-6.746,6.747-6.746    C175.532,165.886,178.552,168.907,178.552,172.633z"></path>		</g>	</g>	<g>					<rect x="156.238" y="256.669" style="fill:#FFFFFF;stroke:#263238;stroke-linecap:round;stroke-linejoin:round;stroke-miterlimit:10;" width="64.084" height="90.016"></rect>		<g>			<polygon style="fill:#92E3A9;stroke:#263238;stroke-linecap:round;stroke-linejoin:round;stroke-miterlimit:10;" points="    220.322,282.365 211.094,271.533 191.252,306.059 178.155,297.725 156.238,346.685 220.322,346.685    "></polygon>			<path style="fill:#92E3A9;stroke:#263238;stroke-linecap:round;stroke-linejoin:round;stroke-miterlimit:10;" d="    M178.552,273.517c0,3.726-3.021,6.747-6.746,6.747c-3.726,0-6.747-3.021-6.747-6.747c0-3.726,3.021-6.746,6.747-6.746    C175.532,266.77,178.552,269.791,178.552,273.517z"></path>		</g>	</g>	<g>					<rect x="531.205" y="155.785" style="fill:#FFFFFF;stroke:#263238;stroke-linecap:round;stroke-linejoin:round;stroke-miterlimit:10;" width="64.084" height="90.016"></rect>		<g>			<polygon style="fill:#92E3A9;stroke:#263238;stroke-linecap:round;stroke-linejoin:round;stroke-miterlimit:10;" points="    595.289,181.481 586.061,170.649 566.218,205.175 553.122,196.841 531.205,245.801 595.289,245.801    "></polygon>			<path style="fill:#92E3A9;stroke:#263238;stroke-linecap:round;stroke-linejoin:round;stroke-miterlimit:10;" d="    M553.519,172.633c0,3.726-3.021,6.747-6.747,6.747c-3.726,0-6.747-3.021-6.747-6.747c0-3.726,3.021-6.746,6.747-6.746    C550.498,165.886,553.519,168.907,553.519,172.633z"></path>		</g>	</g>	<g>					<rect x="531.205" y="256.669" style="fill:#FFFFFF;stroke:#263238;stroke-linecap:round;stroke-linejoin:round;stroke-miterlimit:10;" width="64.084" height="90.016"></rect>		<g>			<polygon style="fill:#92E3A9;stroke:#263238;stroke-linecap:round;stroke-linejoin:round;stroke-miterlimit:10;" points="    595.289,282.365 586.061,271.533 566.218,306.059 553.122,297.725 531.205,346.685 595.289,346.685    "></polygon>			<path style="fill:#92E3A9;stroke:#263238;stroke-linecap:round;stroke-linejoin:round;stroke-miterlimit:10;" d="    M553.519,273.517c0,3.726-3.021,6.747-6.747,6.747c-3.726,0-6.747-3.021-6.747-6.747c0-3.726,3.021-6.746,6.747-6.746    C550.498,266.77,553.519,269.791,553.519,273.517z"></path>		</g>	</g></g><g id="Character">	<g>		<g>			<path style="fill:#FFFFFF;stroke:#263238;stroke-linecap:round;stroke-linejoin:round;stroke-miterlimit:10;" d="    M712.394,352.004c0,0-0.867,7.369,0.217,10.403c1.084,3.034,8.019,23.846,9.103,42.268c1.084,18.422,2.167,35.344,1.517,36.211    c-0.65,0.867-4.551,0.434-4.551,0.434h-13.004c0,0-1.084-0.867-0.434-1.951c0.65-1.084,6.935-5.852,7.802-7.369    c0.867-1.517,1.951-3.685,1.951-4.335s-1.517-16.488-6.719-26.891c-5.202-10.403-11.92-35.983-12.57-45.302L712.394,352.004z"></path>			<path style="fill:#92E3A9;stroke:#263238;stroke-linecap:round;stroke-linejoin:round;stroke-miterlimit:10;" d="    M705.242,439.369c0.37-0.617,2.567-2.429,4.551-4.155v2.205h13.62c0.039,2.011-0.011,3.238-0.183,3.468    c-0.65,0.867-4.551,0.434-4.551,0.434h-13.004C705.676,441.32,704.592,440.453,705.242,439.369z"></path>		</g>		<g>			<path style="fill:#FFFFFF;stroke:#263238;stroke-linecap:round;stroke-linejoin:round;stroke-miterlimit:10;" d="    M698.523,353.088c0,0-3.034,21.678-0.867,28.181c2.167,6.502,1.3,18.205-1.734,30.559c-3.034,12.354-5.418,20.156-5.418,20.806    c0,0.65,0,6.502-0.65,7.586c-0.65,1.084-19.723,0.867-21.023,0.867s-2.601-1.3-1.517-2.601c1.084-1.3,6.944-2.72,10.837-4.551    c3.684-1.734,3.901-2.167,3.901-2.167s2.167-25.358,1.3-36.628c-0.867-11.27-5.65-34.68-4.783-42.482L698.523,353.088z"></path>			<path style="fill:#92E3A9;stroke:#263238;stroke-linecap:round;stroke-linejoin:round;stroke-miterlimit:10;" d="    M668.831,441.086c-1.3,0-2.601-1.3-1.517-2.601c0.873-1.047,4.841-2.171,8.387-3.526l0.716,1.575l14.039-1.053    c-0.067,1.889-0.225,4.11-0.601,4.737C689.204,441.303,670.131,441.086,668.831,441.086z"></path>		</g>		<path style="fill:#263238;stroke:#263238;stroke-linecap:round;stroke-linejoin:round;stroke-miterlimit:10;" d="M710.627,279.568   c0,0,7.402,16.085,8.052,25.838c0.65,9.753-3.468,20.373-3.468,20.373l2.601,27.958c0,0-8.669,5.418-23.19,5.202   c-14.521-0.217-21.673-2.601-21.673-2.601s-1.734-34.027,2.818-50.499c4.551-16.472,2.934-25.457,2.934-25.457   S698.891,281.255,710.627,279.568z"></path>		<path style="fill:#92E3A9;stroke:#263238;stroke-linecap:round;stroke-linejoin:round;stroke-miterlimit:10;" d="M683.098,217.342   c0,0,2.118,7.005,2.932,10.914s-1.303,11.403-4.072,16.615c-2.769,5.213-5.864,10.751-4.398,15.475   c1.466,4.724,2.118,6.516,2.118,6.516s-1.14,11.566-0.977,13.52c0.163,1.955,8.47,3.909,16.778,3.095   c8.308-0.815,14.498-2.443,15.149-3.91c0.652-1.466,0-9.611,1.14-13.846c1.14-4.235,1.466-23.946-1.14-28.181   c-2.606-4.235-8.633-10.914-8.633-10.914l-4.887-12.869L683.098,217.342z"></path>		<path style="fill:#FFFFFF;stroke:#263238;stroke-linecap:round;stroke-linejoin:round;stroke-miterlimit:10;" d="M704.449,229.447   c-1.965-0.418-5.473-0.798-9.134,0.602c-3.189,1.219-7.29,4.379-10.201,6.844c0.929-3.31,1.359-6.505,0.916-8.636   c-0.814-3.91-2.932-10.914-2.932-10.914l14.009-3.584l4.887,12.869C701.994,226.628,703.043,227.791,704.449,229.447z"></path>		<g>			<path style="fill:#FFFFFF;stroke:#263238;stroke-linecap:round;stroke-linejoin:round;stroke-miterlimit:10;" d="    M676.636,190.691c0,0-1.953,5.218-2.649,7.444c-0.696,2.226-1.716,4.422-3.044,4.627c-1.328,0.205-2.568,1.236-1.744,2.947    c0.824,1.712,3.092,3.72,3.092,3.72s1.184,8.452,2.068,9.515c0.883,1.063,4.984,0.95,7.491,0.363    c2.508-0.587,7.331-1.451,7.331-1.451s1.57-17.032,0.586-20.558c-0.984-3.526-5.254-8.664-6.507-9.27    C682.008,187.424,676.636,190.691,676.636,190.691z"></path>			<path style="fill:#263238;" d="M675.664,201.235c-0.083,0.896,0.177,1.652,0.58,1.689c0.403,0.037,0.797-0.659,0.879-1.555    c0.083-0.896-0.177-1.652-0.58-1.689C676.14,199.643,675.747,200.339,675.664,201.235z"></path>			<path style="fill:none;stroke:#263238;stroke-linecap:round;stroke-linejoin:round;stroke-miterlimit:10;" d="M679.796,198.999    c0,0-2.356-2.835-4.083-1.849"></path>			<path style="fill:none;stroke:#263238;stroke-linecap:round;stroke-linejoin:round;stroke-miterlimit:10;" d="M678.5,209.512    c0,0-1.934,1.458-4.22,1.411"></path>		</g>		<path style="fill:#263238;stroke:#263238;stroke-linecap:round;stroke-linejoin:round;stroke-miterlimit:10;" d="M715.635,214.106   c-1.839-12.567-3.121-21.321-6.82-26.014c-2.079-3.139-4.745-5.23-7.672-5.938c-6.561-1.586-14.541-0.195-14.541-0.195   s-4.595-5.167-10.351-1.281c-5.757,3.886-3.655,9.478-1.032,11.192c2.623,1.714,6.264,3.031,6.264,3.031l0.935-4.821   c0,0,4.428,8.751,4.825,9.769l-6.238,40.23c0,0,12.811-8.784,15.424-6.737c2.613,2.047,5.138,3.851,5.138,6.016   s-0.361,18.037-0.361,18.037h14.79C715.995,257.394,717.799,228.896,715.635,214.106z"></path>		<path style="fill:#263238;stroke:#263238;stroke-linecap:round;stroke-linejoin:round;stroke-miterlimit:10;" d="M621.012,218.825   c0.151-0.587,0.794-0.897,1.347-0.65l6.377,2.845l-6.83-6.454c-0.379-0.358-0.437-0.939-0.137-1.365   c0.32-0.455,0.941-0.581,1.413-0.286l7.438,4.648l-4.315-5.29c-0.402-0.493-0.245-1.232,0.323-1.519   c0.357-0.18,0.788-0.13,1.093,0.129l8.574,7.256l-0.806-3.165c-0.18-0.708,0.295-1.416,1.019-1.517   c0.559-0.078,1.097,0.231,1.306,0.756c0.552,1.383,1.598,3.982,2.007,4.836c0.567,1.184,1.353,3.855,1.282,4.829   c-0.071,0.975-0.074,3.261-0.074,3.261l16.075,12.615l1.245-1.471l4.335,4.118l-0.124,1.61l3.942,3.011   c0,0,26.477-13.442,29.925-13.681c3.447-0.239,8.233,5.824,6.16,11.88c-2.073,6.056-37.088,15.611-38.237,15.691   s-26.412-29.425-26.412-29.425s-4.292-1.618-6.171-2.735c-1.573-0.935-7.952-3.478-9.987-4.281   c-0.355-0.14-0.534-0.531-0.414-0.893c0.117-0.356,0.487-0.563,0.851-0.476l5.296,1.258l-6.133-4.502   C621.058,219.622,620.912,219.213,621.012,218.825z"></path>		<g>			<path style="fill:#92E3A9;stroke:#263238;stroke-linecap:round;stroke-linejoin:round;stroke-miterlimit:10;" d="    M501.785,185.456H652.71c5.429,0,9.83,4.401,9.83,9.83v236.312c0,5.429-4.401,9.83-9.83,9.83H501.785    c-5.429,0-9.83-4.401-9.83-9.83V195.286C491.955,189.857,496.356,185.456,501.785,185.456z"></path>			<g>									<rect x="573.003" y="400.849" style="fill:#FFFFFF;stroke:#263238;stroke-linecap:round;stroke-linejoin:round;stroke-miterlimit:10;" width="11.041" height="21.694"></rect>									<rect x="573.003" y="372.777" style="fill:#FFFFFF;stroke:#263238;stroke-linecap:round;stroke-linejoin:round;stroke-miterlimit:10;" width="11.041" height="21.694"></rect>									<rect x="573.003" y="344.704" style="fill:#FFFFFF;stroke:#263238;stroke-linecap:round;stroke-linejoin:round;stroke-miterlimit:10;" width="11.041" height="21.694"></rect>									<rect x="573.003" y="316.631" style="fill:#FFFFFF;stroke:#263238;stroke-linecap:round;stroke-linejoin:round;stroke-miterlimit:10;" width="11.041" height="21.694"></rect>									<rect x="573.003" y="288.559" style="fill:#FFFFFF;stroke:#263238;stroke-linecap:round;stroke-linejoin:round;stroke-miterlimit:10;" width="11.041" height="21.694"></rect>									<rect x="573.003" y="260.486" style="fill:#FFFFFF;stroke:#263238;stroke-linecap:round;stroke-linejoin:round;stroke-miterlimit:10;" width="11.041" height="21.694"></rect>									<rect x="573.003" y="232.413" style="fill:#FFFFFF;stroke:#263238;stroke-linecap:round;stroke-linejoin:round;stroke-miterlimit:10;" width="11.041" height="21.694"></rect>									<rect x="573.003" y="204.341" style="fill:#FFFFFF;stroke:#263238;stroke-linecap:round;stroke-linejoin:round;stroke-miterlimit:10;" width="11.041" height="21.694"></rect>			</g>							<ellipse transform="matrix(0.9239 -0.3827 0.3827 0.9239 -34.8879 258.755)" style="fill:#FFFFFF;stroke:#263238;stroke-linecap:round;stroke-linejoin:round;stroke-miterlimit:10;" cx="632.981" cy="217.074" rx="11.961" ry="11.962"></ellipse>							<ellipse transform="matrix(0.9239 -0.3827 0.3827 0.9239 -44.6335 260.6935)" style="fill:#FFFFFF;stroke:#263238;stroke-linecap:round;stroke-linejoin:round;stroke-miterlimit:10;" cx="632.981" cy="242.541" rx="11.961" ry="11.962"></ellipse>							<ellipse transform="matrix(0.9958 -0.0915 0.0915 0.9958 -21.901 59.031)" style="fill:#FFFFFF;stroke:#263238;stroke-linecap:round;stroke-linejoin:round;stroke-miterlimit:10;" cx="632.981" cy="268.419" rx="11.961" ry="11.962"></ellipse>			<path style="fill:#263238;stroke:#263238;stroke-linecap:round;stroke-linejoin:round;stroke-miterlimit:10;" d="    M501.785,185.456c-5.429,0-9.83,4.401-9.83,9.83v236.312c0,5.429,4.401,9.83,9.83,9.83h35.889v-56.893l-35.499-45.917V185.456    H501.785z"></path>							<line style="fill:none;stroke:#263238;stroke-linecap:round;stroke-linejoin:round;stroke-miterlimit:10;" x1="627.579" y1="403.296" x2="627.579" y2="290.001"></line>							<line style="fill:none;stroke:#263238;stroke-linecap:round;stroke-linejoin:round;stroke-miterlimit:10;" x1="627.579" y1="422.735" x2="627.579" y2="412.981"></line>							<line style="fill:none;stroke:#263238;stroke-linecap:round;stroke-linejoin:round;stroke-miterlimit:10;" x1="638.769" y1="302.416" x2="638.769" y2="290.001"></line>							<line style="fill:none;stroke:#263238;stroke-linecap:round;stroke-linejoin:round;stroke-miterlimit:10;" x1="638.769" y1="422.735" x2="638.769" y2="312.908"></line>			<g>				<path style="fill:#FFFFFF;stroke:#263238;stroke-linecap:round;stroke-linejoin:round;stroke-miterlimit:10;" d="     M550.654,377.77v39.894c0,2.516-2.039,4.555-4.555,4.555h-26.003c-2.516,0-4.555-2.039-4.555-4.555V377.77     c0-2.516,2.039-4.555,4.555-4.555h26.003C548.615,373.215,550.654,375.254,550.654,377.77z"></path>									<rect x="528.599" y="393.218" transform="matrix(6.123234e-17 -1 1 6.123234e-17 135.3811 930.8145)" style="fill:#FFFFFF;stroke:#263238;stroke-linecap:round;stroke-linejoin:round;stroke-miterlimit:10;" width="8.997" height="8.997"></rect>				<g>					<polyline style="fill:none;stroke:#263238;stroke-linecap:round;stroke-linejoin:round;stroke-miterlimit:10;" points="      530.845,402.47 530.845,415.83 527.646,415.83 527.646,421.665      "></polyline>					<polyline style="fill:none;stroke:#263238;stroke-linecap:round;stroke-linejoin:round;stroke-miterlimit:10;" points="      538.728,421.665 538.728,415.467 535.529,415.467 535.529,402.47      "></polyline>											<line style="fill:none;stroke:#263238;stroke-linecap:round;stroke-linejoin:round;stroke-miterlimit:10;" x1="533.098" y1="402.804" x2="533.098" y2="421.871"></line>				</g>				<g>					<polyline style="fill:none;stroke:#263238;stroke-linecap:round;stroke-linejoin:round;stroke-miterlimit:10;" points="      530.845,393.104 530.845,379.744 527.646,379.744 527.646,373.909      "></polyline>					<polyline style="fill:none;stroke:#263238;stroke-linecap:round;stroke-linejoin:round;stroke-miterlimit:10;" points="      538.728,373.909 538.728,380.108 535.529,380.108 535.529,393.104      "></polyline>											<line style="fill:none;stroke:#263238;stroke-linecap:round;stroke-linejoin:round;stroke-miterlimit:10;" x1="533.098" y1="392.77" x2="533.098" y2="373.703"></line>				</g>									<line style="fill:none;stroke:#263238;stroke-linecap:round;stroke-linejoin:round;stroke-miterlimit:10;" x1="516.198" y1="397.717" x2="528.685" y2="397.717"></line>									<line style="fill:none;stroke:#263238;stroke-linecap:round;stroke-linejoin:round;stroke-miterlimit:10;" x1="537.712" y1="397.717" x2="549.865" y2="397.717"></line>			</g>		</g>		<g>			<path style="fill:#FFFFFF;stroke:#263238;stroke-linecap:round;stroke-linejoin:round;stroke-miterlimit:10;" d="    M665.959,249.937c0,0,25.447-15.654,28.868-16.142c3.421-0.489,8.633,5.213,7.004,11.403    c-1.629,6.19-35.872,18.586-37.012,18.748c-1.14,0.163-28.893-26.856-28.893-26.856s-4.398-1.303-6.353-2.281    c-1.637-0.818-8.183-2.893-10.271-3.546c-0.364-0.114-0.57-0.49-0.478-0.861l0,0c0.091-0.363,0.445-0.597,0.815-0.537    l5.373,0.871l-6.443-4.046c-0.339-0.213-0.514-0.611-0.443-1.005l0,0c0.108-0.596,0.727-0.952,1.297-0.746l6.567,2.375    l-7.279-5.942c-0.403-0.329-0.504-0.905-0.236-1.351l0,0c0.286-0.478,0.896-0.648,1.388-0.388l7.756,4.097l-4.687-4.963    c-0.437-0.463-0.334-1.211,0.212-1.539l0,0c0.343-0.206,0.776-0.187,1.1,0.049l9.077,6.616l-1.033-3.099    c-0.231-0.693,0.192-1.434,0.906-1.587l0,0c0.552-0.118,1.111,0.151,1.358,0.659c0.651,1.34,1.883,3.856,2.353,4.678    c0.652,1.14,1.629,3.747,1.629,4.724c0,0.977,0.163,3.258,0.163,3.258L665.959,249.937z"></path>			<path style="fill:#92E3A9;stroke:#263238;stroke-linecap:round;stroke-linejoin:round;stroke-miterlimit:10;" d="M651.529,252.04    l0.321-0.535l5.114-7.054l8.995,5.486c0,0,25.447-15.653,28.868-16.142c3.421-0.489,8.633,5.213,7.005,11.403    c-1.629,6.19-35.872,18.586-37.012,18.748C664.273,264.024,660.151,259.91,651.529,252.04z"></path>			<polygon style="fill:#92E3A9;stroke:#263238;stroke-linecap:round;stroke-linejoin:round;stroke-miterlimit:10;" points="    660.085,246.303 652.933,254.973 648.815,251.722 655.967,242.836    "></polygon>		</g>	</g></g><g id="Awning">	<g>		<path style="fill:#263238;stroke:#263238;stroke-linecap:round;stroke-linejoin:round;stroke-miterlimit:10;" d="M584.005,77.922   h-0.186h-34.602h-0.186h-34.602h-0.186h-34.602h-0.186h-34.602h-0.186h-34.602h-0.186h-34.602h-0.186h-34.602h-0.186h-34.602   h-0.186h-34.602h-0.186h-34.602h-0.186H201.34h-0.186h-34.602h-0.186h-34.788v33.341v0.178v15.855   c0,9.658,7.829,17.487,17.487,17.487h0c9.048,0,16.49-6.872,17.394-15.681c0.904,8.809,8.346,15.681,17.394,15.681h0   c9.048,0,16.49-6.872,17.394-15.681c0.904,8.809,8.346,15.681,17.394,15.681s16.49-6.872,17.394-15.681   c0.904,8.809,8.346,15.681,17.394,15.681h0c9.048,0,16.49-6.872,17.394-15.681c0.904,8.809,8.346,15.681,17.394,15.681h0   c9.048,0,16.49-6.872,17.394-15.681c0.904,8.809,8.346,15.681,17.394,15.681c9.048,0,16.49-6.872,17.394-15.681   c0.904,8.809,8.346,15.681,17.394,15.681l0,0c9.048,0,16.49-6.872,17.394-15.681c0.904,8.809,8.346,15.681,17.394,15.681   c9.048,0,16.49-6.872,17.394-15.681c0.904,8.809,8.346,15.681,17.394,15.681c9.048,0,16.49-6.872,17.394-15.681   c0.904,8.809,8.346,15.681,17.394,15.681h0c9.048,0,16.49-6.872,17.394-15.681c0.904,8.809,8.346,15.681,17.394,15.681   c9.048,0,16.49-6.872,17.394-15.681c0.904,8.809,8.346,15.681,17.394,15.681h0c9.048,0,16.49-6.872,17.394-15.681   c0.904,8.809,8.346,15.681,17.394,15.681l0,0c9.048,0,16.49-6.872,17.394-15.681c0.904,8.809,8.346,15.681,17.394,15.681   c9.658,0,17.487-7.829,17.487-17.487v-15.855v-0.178V77.922H584.005z"></path>		<g>			<g>									<rect x="131.579" y="68.977" style="fill:#92E3A9;stroke:#263238;stroke-linecap:round;stroke-linejoin:round;stroke-miterlimit:10;" width="34.974" height="33.52"></rect>									<rect x="166.366" y="68.977" style="fill:#E5E5E5;stroke:#263238;stroke-linecap:round;stroke-linejoin:round;stroke-miterlimit:10;" width="34.974" height="33.52"></rect>									<rect x="201.154" y="68.977" style="fill:#92E3A9;stroke:#263238;stroke-linecap:round;stroke-linejoin:round;stroke-miterlimit:10;" width="34.974" height="33.52"></rect>									<rect x="235.942" y="68.977" style="fill:#E5E5E5;stroke:#263238;stroke-linecap:round;stroke-linejoin:round;stroke-miterlimit:10;" width="34.974" height="33.52"></rect>									<rect x="270.729" y="68.977" style="fill:#92E3A9;stroke:#263238;stroke-linecap:round;stroke-linejoin:round;stroke-miterlimit:10;" width="34.974" height="33.52"></rect>									<rect x="305.517" y="68.977" style="fill:#E5E5E5;stroke:#263238;stroke-linecap:round;stroke-linejoin:round;stroke-miterlimit:10;" width="34.974" height="33.52"></rect>									<rect x="340.305" y="68.977" style="fill:#92E3A9;stroke:#263238;stroke-linecap:round;stroke-linejoin:round;stroke-miterlimit:10;" width="34.974" height="33.52"></rect>									<rect x="375.092" y="68.977" style="fill:#E5E5E5;stroke:#263238;stroke-linecap:round;stroke-linejoin:round;stroke-miterlimit:10;" width="34.974" height="33.52"></rect>									<rect x="409.88" y="68.977" style="fill:#92E3A9;stroke:#263238;stroke-linecap:round;stroke-linejoin:round;stroke-miterlimit:10;" width="34.974" height="33.52"></rect>									<rect x="444.668" y="68.977" style="fill:#E5E5E5;stroke:#263238;stroke-linecap:round;stroke-linejoin:round;stroke-miterlimit:10;" width="34.974" height="33.52"></rect>									<rect x="479.456" y="68.977" style="fill:#92E3A9;stroke:#263238;stroke-linecap:round;stroke-linejoin:round;stroke-miterlimit:10;" width="34.974" height="33.52"></rect>									<rect x="514.243" y="68.977" style="fill:#E5E5E5;stroke:#263238;stroke-linecap:round;stroke-linejoin:round;stroke-miterlimit:10;" width="34.974" height="33.52"></rect>									<rect x="549.031" y="68.977" style="fill:#92E3A9;stroke:#263238;stroke-linecap:round;stroke-linejoin:round;stroke-miterlimit:10;" width="34.974" height="33.52"></rect>									<rect x="583.818" y="68.977" style="fill:#E5E5E5;stroke:#263238;stroke-linecap:round;stroke-linejoin:round;stroke-miterlimit:10;" width="34.974" height="33.52"></rect>			</g>			<g>				<path style="fill:#92E3A9;stroke:#263238;stroke-linecap:round;stroke-linejoin:round;stroke-miterlimit:10;" d="     M149.066,135.838L149.066,135.838c-9.658,0-17.487-7.829-17.487-17.487v-16.033h34.974v16.033     C166.552,128.009,158.723,135.838,149.066,135.838z"></path>				<path style="fill:#FFFFFF;stroke:#263238;stroke-linecap:round;stroke-linejoin:round;stroke-miterlimit:10;" d="     M183.853,135.838L183.853,135.838c-9.658,0-17.487-7.829-17.487-17.487v-16.033h34.974v16.033     C201.34,128.009,193.511,135.838,183.853,135.838z"></path>				<path style="fill:#92E3A9;stroke:#263238;stroke-linecap:round;stroke-linejoin:round;stroke-miterlimit:10;" d="     M218.641,135.838L218.641,135.838c-9.658,0-17.487-7.829-17.487-17.487v-16.033h34.974v16.033     C236.128,128.009,228.299,135.838,218.641,135.838z"></path>				<path style="fill:#FFFFFF;stroke:#263238;stroke-linecap:round;stroke-linejoin:round;stroke-miterlimit:10;" d="     M253.429,135.838L253.429,135.838c-9.658,0-17.487-7.829-17.487-17.487v-16.033h34.974v16.033     C270.915,128.009,263.086,135.838,253.429,135.838z"></path>				<path style="fill:#92E3A9;stroke:#263238;stroke-linecap:round;stroke-linejoin:round;stroke-miterlimit:10;" d="     M288.216,135.838L288.216,135.838c-9.658,0-17.487-7.829-17.487-17.487v-16.033h34.974v16.033     C305.703,128.009,297.874,135.838,288.216,135.838z"></path>				<path style="fill:#FFFFFF;stroke:#263238;stroke-linecap:round;stroke-linejoin:round;stroke-miterlimit:10;" d="     M323.004,135.838L323.004,135.838c-9.658,0-17.487-7.829-17.487-17.487v-16.033h34.974v16.033     C340.491,128.009,332.662,135.838,323.004,135.838z"></path>				<path style="fill:#92E3A9;stroke:#263238;stroke-linecap:round;stroke-linejoin:round;stroke-miterlimit:10;" d="     M357.792,135.838L357.792,135.838c-9.658,0-17.487-7.829-17.487-17.487v-16.033h34.974v16.033     C375.279,128.009,367.449,135.838,357.792,135.838z"></path>				<path style="fill:#FFFFFF;stroke:#263238;stroke-linecap:round;stroke-linejoin:round;stroke-miterlimit:10;" d="     M392.579,135.838L392.579,135.838c-9.658,0-17.487-7.829-17.487-17.487v-16.033h34.974v16.033     C410.066,128.009,402.237,135.838,392.579,135.838z"></path>				<path style="fill:#92E3A9;stroke:#263238;stroke-linecap:round;stroke-linejoin:round;stroke-miterlimit:10;" d="     M427.367,135.838L427.367,135.838c-9.658,0-17.487-7.829-17.487-17.487v-16.033h34.974v16.033     C444.854,128.009,437.025,135.838,427.367,135.838z"></path>				<path style="fill:#FFFFFF;stroke:#263238;stroke-linecap:round;stroke-linejoin:round;stroke-miterlimit:10;" d="     M462.155,135.838L462.155,135.838c-9.658,0-17.487-7.829-17.487-17.487v-16.033h34.974v16.033     C479.641,128.009,471.812,135.838,462.155,135.838z"></path>				<path style="fill:#92E3A9;stroke:#263238;stroke-linecap:round;stroke-linejoin:round;stroke-miterlimit:10;" d="     M496.942,135.838L496.942,135.838c-9.658,0-17.487-7.829-17.487-17.487v-16.033h34.974v16.033     C514.429,128.009,506.6,135.838,496.942,135.838z"></path>				<path style="fill:#FFFFFF;stroke:#263238;stroke-linecap:round;stroke-linejoin:round;stroke-miterlimit:10;" d="     M531.73,135.838L531.73,135.838c-9.658,0-17.487-7.829-17.487-17.487v-16.033h34.974v16.033     C549.217,128.009,541.388,135.838,531.73,135.838z"></path>				<path style="fill:#92E3A9;stroke:#263238;stroke-linecap:round;stroke-linejoin:round;stroke-miterlimit:10;" d="     M566.518,135.838L566.518,135.838c-9.658,0-17.487-7.829-17.487-17.487v-16.033h34.974v16.033     C584.005,128.009,576.175,135.838,566.518,135.838z"></path>				<path style="fill:#FFFFFF;stroke:#263238;stroke-linecap:round;stroke-linejoin:round;stroke-miterlimit:10;" d="     M601.305,135.838L601.305,135.838c-9.658,0-17.487-7.829-17.487-17.487v-16.033h34.974v16.033     C618.792,128.009,610.963,135.838,601.305,135.838z"></path>			</g>		</g>	</g></g><g id="Wifi">	<g>					<ellipse transform="matrix(0.9732 -0.2298 0.2298 0.9732 -42.6859 33.9437)" style="fill:#263238;stroke:#263238;stroke-linecap:round;stroke-linejoin:round;stroke-miterlimit:10;" cx="124.421" cy="200.278" rx="42.382" ry="42.382"></ellipse>					<circle style="fill:#92E3A9;stroke:#263238;stroke-linecap:round;stroke-linejoin:round;stroke-miterlimit:10;" cx="122.152" cy="196.895" r="42.382"></circle>		<g>			<path style="fill:#263238;" d="M122.201,182.687c-5.53,0.04-10.894,1.368-15.767,4.324c-1.992,1.208-3.803,2.722-5.648,4.16    c-1.068,0.832-2.169,1.246-3.506,0.846c-1.97-0.59-2.916-2.974-1.814-4.716c0.371-0.586,0.875-1.111,1.399-1.573    c6.131-5.413,13.242-8.654,21.398-9.475c11.186-1.126,20.91,2.284,29.343,9.6c0.846,0.734,1.598,1.536,1.685,2.757    c0.1,1.398-0.432,2.473-1.626,3.171c-1.211,0.708-2.439,0.556-3.563-0.213c-0.662-0.453-1.238-1.03-1.86-1.543    c-5.577-4.602-11.973-7.049-19.204-7.301C122.813,182.716,122.586,182.704,122.201,182.687z"></path>			<path style="fill:#263238;" d="M138.685,200.532c-1.028,0.02-1.848-0.427-2.576-1.102c-2.929-2.72-6.32-4.632-10.269-5.278    c-6.099-0.998-11.661,0.326-16.48,4.334c-0.562,0.467-1.103,0.964-1.694,1.391c-1.424,1.03-3.313,0.812-4.442-0.478    c-1.105-1.263-1.095-3.139,0.104-4.4c2.67-2.807,5.883-4.81,9.502-6.141c7.017-2.58,13.938-2.255,20.722,0.857    c2.772,1.271,5.244,3.002,7.399,5.166c1.012,1.016,1.268,2.449,0.702,3.697C141.078,199.85,140.072,200.489,138.685,200.532z"></path>			<path style="fill:#263238;" d="M122.078,198.245c4.514,0.095,8.382,1.691,11.497,5.016c1.231,1.314,1.294,3.269,0.137,4.519    c-1.238,1.337-3.15,1.42-4.634,0.293c-1.175-0.893-2.326-1.93-3.662-2.473c-3.48-1.415-6.666-0.625-9.439,1.861    c-0.986,0.885-1.993,1.586-3.439,1.334c-2.427-0.423-3.555-3.254-2.02-5.182c1.494-1.876,3.404-3.191,5.607-4.105    C118.031,198.719,120.003,198.261,122.078,198.245z"></path>			<path style="fill:#263238;" d="M122.225,217.749c-2.309-0.011-4.044-1.725-4.037-3.989c0.006-2.137,1.839-3.98,3.944-3.967    c2.319,0.014,4.054,1.78,4.027,4.099C126.133,216.012,124.351,217.759,122.225,217.749z"></path>		</g>	</g></g><g id="Button">	<g>		<path style="fill:#263238;" d="M426.23,298.509H323.77c-5.121,0-9.272-4.151-9.272-9.272v-28.323c0-5.121,4.151-9.272,9.272-9.272   h102.46c5.121,0,9.272,4.151,9.272,9.272v28.323C435.502,294.358,431.351,298.509,426.23,298.509z"></path>	</g></g><g id="Text">	<g>		<path style="fill:#92E3A9;" d="M348.372,288.602v-27.424h6.94c1.196,0,2.302,0.102,3.318,0.305   c1.016,0.203,1.913,0.565,2.692,1.083c0.778,0.519,1.376,1.235,1.794,2.15c0.417,0.914,0.626,2.105,0.626,3.572   c0,1.106-0.158,2.048-0.474,2.827c-0.316,0.778-0.767,1.394-1.354,1.845c-0.587,0.452-1.309,0.756-2.167,0.914   c1.061,0.158,1.952,0.52,2.675,1.083c0.722,0.565,1.264,1.309,1.625,2.234c0.361,0.926,0.542,2.043,0.542,3.352   c0,1.377-0.175,2.573-0.525,3.589c-0.35,1.015-0.863,1.851-1.54,2.505c-0.677,0.655-1.512,1.146-2.505,1.473   c-0.993,0.327-2.145,0.491-3.453,0.491H348.372z M353.958,272.249h1.388c0.97,0,1.704-0.141,2.201-0.423   c0.497-0.282,0.841-0.711,1.033-1.287c0.191-0.576,0.288-1.281,0.288-2.116c0-0.835-0.142-1.506-0.423-2.015   c-0.283-0.508-0.711-0.874-1.287-1.1c-0.576-0.226-1.303-0.338-2.184-0.338h-1.016V272.249z M353.958,284.674h1.557   c1.399,0,2.364-0.35,2.895-1.05c0.53-0.699,0.795-1.749,0.795-3.148c0-1.083-0.125-1.947-0.372-2.59   c-0.249-0.643-0.649-1.117-1.202-1.422c-0.553-0.305-1.293-0.457-2.218-0.457h-1.456V284.674z"></path>		<path style="fill:#92E3A9;" d="M375.525,288.974c-2.077,0-3.69-0.355-4.842-1.066c-1.151-0.711-1.958-1.737-2.42-3.081   c-0.463-1.343-0.694-2.974-0.694-4.893v-18.756h5.518v19.535c0,0.677,0.051,1.343,0.153,1.998   c0.102,0.655,0.327,1.185,0.677,1.591c0.35,0.406,0.886,0.609,1.608,0.609c0.745,0,1.292-0.203,1.642-0.609   c0.35-0.406,0.57-0.937,0.66-1.591c0.09-0.654,0.135-1.32,0.135-1.998v-19.535h5.519v18.756c0,1.919-0.232,3.55-0.694,4.893   c-0.463,1.343-1.27,2.37-2.421,3.081C379.215,288.618,377.601,288.974,375.525,288.974z"></path>		<path style="fill:#92E3A9;" d="M390.963,288.602v-10.868l-5.35-16.556h5.248l2.945,9.649l2.742-9.649h5.079l-5.282,16.556v10.868   H390.963z"></path>	</g></g><g id="Arrow">	<g>		<path style="fill:#263238;" d="M272.688,328.031l52.282-44.301c1.758-1.49,0.544-4.357-1.75-4.13l-68.013,6.72   c-2.265,0.224-2.92,3.215-0.956,4.365l14.097,8.257l-45.366,19.219l4.576,10.801l44.922-19.031l-3.601,15.786   C268.377,327.918,270.966,329.491,272.688,328.031z"></path>		<path style="fill:#FFFFFF;stroke:#263238;stroke-linecap:round;stroke-linejoin:round;stroke-miterlimit:10;" d="M273.44,323.519   l52.282-44.301c1.758-1.49,0.544-4.357-1.75-4.13l-68.013,6.72c-2.265,0.224-2.92,3.215-0.956,4.365l14.097,8.257l-45.366,19.219   l4.576,10.801l44.922-19.031l-3.601,15.786C269.129,323.405,271.718,324.978,273.44,323.519z"></path>	</g></g></svg>